<?xml version="1.0" standalone="no"?>
<!DOCTYPE svg PUBLIC "-//W3C//DTD SVG 20010904//EN"
 "http://www.w3.org/TR/2001/REC-SVG-20010904/DTD/svg10.dtd">
<svg version="1.0" xmlns="http://www.w3.org/2000/svg"
 width="1024.000000pt" height="1024.000000pt" viewBox="0 0 1024.000000 1024.000000"
 preserveAspectRatio="xMidYMid meet">

<g transform="translate(0.000000,1024.000000) scale(0.100000,-0.100000)"
fill="#000000" stroke="none">
<path d="M6861 9041 c-76 -29 -143 -75 -203 -139 -109 -119 -250 -365 -386
-673 -173 -392 -355 -696 -520 -871 -104 -109 -187 -138 -232 -80 -19 24 -21
36 -17 97 6 88 35 160 184 470 228 473 293 653 293 815 0 112 -64 210 -156
240 -58 20 -214 7 -303 -24 -155 -54 -299 -145 -430 -271 -168 -162 -268 -321
-312 -495 -17 -67 -21 -104 -17 -182 4 -86 8 -103 34 -145 54 -88 139 -120
231 -89 49 17 103 60 103 83 0 8 -13 13 -38 13 -66 0 -95 47 -93 153 1 78 22
151 76 259 57 114 121 203 225 312 129 134 262 215 355 216 61 0 85 -22 85
-76 0 -70 -33 -152 -158 -394 -292 -566 -367 -746 -379 -916 -10 -142 31 -239
119 -286 33 -17 60 -23 118 -23 64 0 85 5 144 33 87 41 234 185 321 314 32 48
60 86 62 85 6 -7 -164 -422 -212 -517 -60 -121 -143 -246 -204 -309 -122 -125
-278 -163 -341 -83 -18 21 -21 37 -17 74 4 43 18 71 72 144 13 18 -20 52 -60
60 -86 16 -196 -63 -230 -165 -21 -63 -17 -159 8 -208 58 -112 215 -171 383
-145 151 24 269 88 399 217 191 191 304 406 500 955 245 688 460 1121 684
1378 60 69 81 100 81 121 0 62 -77 85 -169 52z"/>
<path d="M2518 8740 c-521 -68 -1162 -738 -1367 -1428 -67 -226 -80 -465 -32
-601 63 -179 188 -275 376 -288 146 -9 290 37 424 136 68 51 226 208 276 274
15 21 29 36 31 34 6 -5 -162 -412 -208 -507 -46 -92 -144 -243 -209 -320 -83
-99 -192 -169 -301 -195 -113 -27 -181 -14 -239 44 -70 69 -73 155 -9 236 50
63 34 95 -49 95 -66 0 -141 -34 -193 -87 -57 -59 -73 -91 -88 -172 -27 -151
44 -283 189 -349 82 -37 262 -43 381 -13 267 67 517 275 704 584 119 197 216
422 328 762 39 116 89 264 113 330 58 161 60 176 36 206 -17 21 -27 24 -78 23
-57 -1 -98 -16 -155 -55 -16 -12 -47 -63 -83 -136 -79 -165 -172 -301 -289
-421 -157 -161 -271 -227 -396 -227 -86 0 -145 33 -182 102 -118 217 -8 635
285 1081 329 502 704 790 888 684 132 -75 43 -392 -165 -590 -93 -88 -133
-102 -207 -76 -44 16 -51 16 -64 3 -42 -41 -22 -155 36 -203 63 -54 195 -54
300 0 67 33 211 177 258 257 99 168 143 384 110 539 -43 202 -202 307 -421
278z"/>
<path d="M8796 8435 c-84 -30 -146 -122 -146 -217 0 -46 5 -62 25 -86 33 -39
32 -55 -10 -153 -168 -392 -413 -759 -507 -759 -27 0 -41 38 -35 94 8 72 118
328 277 645 33 68 60 133 58 144 -10 70 -211 77 -271 10 -9 -11 -60 -118 -113
-238 -163 -374 -261 -543 -375 -650 -43 -40 -54 -46 -87 -43 -49 4 -61 36 -42
110 16 67 152 372 259 585 44 90 81 174 81 188 0 14 -8 29 -20 35 -59 31 -198
18 -248 -25 -15 -13 -48 -65 -72 -117 -143 -306 -146 -313 -192 -355 -46 -41
-128 -90 -128 -76 0 5 9 37 21 73 58 185 23 373 -81 434 -50 30 -173 28 -253
-3 -208 -81 -458 -389 -552 -681 -23 -70 -28 -104 -29 -196 -1 -104 1 -114 29
-169 43 -83 92 -116 183 -123 201 -14 388 133 573 449 29 50 46 68 66 74 16 3
56 24 91 45 34 22 62 37 62 34 0 -2 -11 -31 -25 -63 -91 -216 -86 -400 12
-446 54 -26 153 -17 228 20 63 30 206 162 242 223 l20 33 6 -61 c6 -67 28
-113 70 -144 23 -17 43 -21 100 -21 100 0 149 27 263 140 134 134 265 341 463
731 98 195 109 206 162 178 41 -21 63 -58 54 -91 -3 -16 -35 -80 -71 -144
-118 -211 -184 -391 -184 -499 0 -105 48 -188 127 -220 83 -32 215 9 330 103
97 78 266 294 324 413 24 50 14 84 -25 84 -26 0 -44 -18 -109 -111 -66 -95
-188 -222 -240 -249 -55 -29 -89 -23 -107 21 -19 45 8 130 123 379 112 243
121 269 114 327 -6 57 -31 92 -87 121 -37 18 -61 22 -137 22 -51 0 -93 3 -93
7 0 3 11 39 25 80 16 46 23 82 19 98 -12 50 -89 68 -168 40z m-1683 -529 c51
-39 48 -185 -9 -358 -19 -59 -36 -61 -87 -12 -92 90 -85 275 13 358 35 29 56
32 83 12z m-313 -358 c27 -74 93 -145 162 -173 27 -11 48 -23 48 -26 0 -3 -17
-33 -37 -67 -51 -83 -149 -191 -189 -208 -74 -31 -135 -9 -150 52 -12 46 4
177 30 254 29 82 97 230 107 230 4 0 16 -28 29 -62z"/>
<path d="M4266 8265 c-22 -8 -50 -24 -62 -37 -13 -13 -57 -95 -98 -183 l-75
-160 -117 -11 c-109 -10 -119 -13 -141 -38 -26 -31 -30 -78 -8 -96 10 -9 42
-11 104 -8 l88 4 -29 -65 c-113 -252 -215 -455 -261 -516 -243 -326 -560 -501
-652 -361 -21 31 -30 101 -21 150 6 29 11 36 30 36 88 0 295 83 396 158 163
122 254 310 220 452 -29 122 -129 170 -288 136 -269 -57 -542 -366 -633 -719
-30 -116 -24 -250 14 -323 80 -156 272 -188 481 -79 98 51 175 112 300 238 60
60 105 104 102 98 -14 -22 -7 -159 9 -198 53 -127 189 -155 347 -71 109 58
272 230 402 427 58 86 68 144 28 149 -30 4 -50 -14 -125 -113 -130 -170 -258
-285 -317 -285 -35 0 -60 29 -60 69 0 43 64 204 188 476 185 405 168 375 205
375 115 2 228 18 247 35 23 21 55 99 46 114 -4 7 -46 8 -121 4 -83 -4 -115 -3
-115 5 0 6 27 69 59 140 76 164 79 175 50 196 -29 20 -138 21 -193 1z m-798
-667 c23 -23 13 -92 -24 -169 -55 -110 -172 -222 -299 -285 -52 -26 -98 -45
-101 -42 -8 8 95 212 150 297 102 159 225 248 274 199z"/>
<path d="M7702 6729 c-124 -61 -190 -207 -143 -313 62 -140 264 -79 351 106
33 70 37 112 16 163 -33 78 -122 95 -224 44z"/>
<path d="M4623 6489 c-259 -51 -531 -407 -1060 -1386 -49 -89 -90 -163 -94
-163 -10 0 70 445 120 670 80 355 135 538 207 682 41 81 42 97 6 123 -22 16
-43 20 -107 20 -68 0 -89 -4 -138 -28 -138 -68 -294 -264 -474 -592 -72 -131
-186 -351 -313 -604 -323 -642 -562 -917 -835 -962 -93 -16 -167 4 -230 62
-62 57 -85 123 -85 243 0 143 46 265 148 392 107 133 222 197 353 198 66 1 80
-2 118 -27 23 -15 46 -25 51 -22 17 11 11 88 -9 122 -25 40 -93 80 -159 93
-121 23 -308 -28 -450 -123 -238 -158 -372 -398 -372 -665 1 -260 126 -441
354 -509 71 -22 252 -21 336 1 149 40 298 133 431 273 190 199 351 465 609
1008 212 444 404 819 386 750 -3 -11 -28 -96 -56 -190 -88 -293 -143 -541
-255 -1148 -52 -279 -52 -297 -1 -317 34 -12 110 11 164 50 107 77 306 359
517 730 292 514 464 788 569 905 l46 50 -60 -126 c-76 -161 -217 -512 -263
-654 -55 -169 -105 -379 -118 -495 -14 -122 -3 -225 30 -293 11 -22 19 -42 18
-43 -1 -1 -31 -16 -67 -34 -160 -80 -375 -257 -516 -424 -376 -446 -555 -994
-433 -1321 29 -79 113 -166 198 -207 59 -29 78 -33 171 -36 159 -6 285 31 427
125 71 46 229 197 290 276 25 32 47 56 49 54 2 -2 -8 -33 -22 -68 -15 -35 -64
-163 -109 -284 -96 -256 -105 -275 -119 -275 -6 0 -56 -7 -111 -15 -289 -41
-561 -133 -740 -250 -96 -63 -190 -163 -228 -242 -29 -63 -32 -76 -32 -168 0
-120 16 -157 96 -229 75 -68 156 -90 297 -83 123 5 197 27 312 88 201 108 390
303 546 564 26 44 57 96 70 116 l22 36 147 6 c155 8 442 31 870 72 759 73
1373 121 1717 135 478 20 874 -18 1200 -116 73 -21 84 -22 97 -9 37 36 -56
134 -184 194 -259 123 -835 189 -1409 163 -509 -24 -828 -56 -1736 -177 -393
-53 -601 -77 -607 -72 -2 3 77 218 177 479 233 606 238 618 245 650 10 40 -31
78 -84 78 -54 0 -145 -35 -178 -69 -16 -15 -55 -72 -88 -125 -83 -135 -172
-251 -273 -358 -102 -107 -174 -164 -270 -214 -128 -67 -278 -57 -338 21 -84
110 -87 298 -9 533 119 356 407 768 680 975 234 177 454 192 494 34 38 -155
-141 -466 -324 -559 -52 -27 -66 -30 -117 -24 -54 5 -59 4 -74 -19 -22 -33
-13 -99 17 -131 55 -59 179 -57 304 5 303 150 491 572 366 825 -52 106 -159
176 -269 176 -56 0 -108 24 -136 63 -18 25 -21 42 -20 135 2 275 198 909 440
1423 41 86 74 168 74 182 0 31 -42 73 -81 81 -38 7 -61 6 -116 -5z m-873
-4396 c-214 -385 -390 -553 -579 -553 -66 0 -100 20 -127 73 -19 37 -14 109
12 159 87 169 249 272 546 348 62 16 128 29 146 30 l34 0 -32 -57z"/>
<path d="M8495 6294 c-254 -39 -543 -305 -696 -642 -75 -164 -121 -238 -232
-371 -68 -81 -144 -141 -178 -141 -47 0 -53 73 -15 180 32 89 129 303 257 570
55 113 99 217 99 233 0 47 -31 67 -103 67 -78 0 -146 -22 -180 -58 -14 -15
-74 -128 -132 -252 -117 -249 -170 -347 -254 -464 -55 -77 -170 -210 -177
-204 -2 2 1 48 7 102 12 121 1 233 -42 417 -44 189 -32 260 51 315 44 29 54
51 45 94 -14 65 -98 93 -199 67 -108 -29 -149 -70 -272 -274 -67 -109 -229
-339 -330 -468 -30 -38 -83 -113 -118 -165 -119 -180 -253 -310 -319 -310 -72
0 -73 87 -3 263 45 111 198 442 290 624 25 51 46 99 46 106 0 8 -9 22 -20 32
-45 40 -237 18 -283 -33 -9 -10 -81 -148 -161 -307 -155 -312 -226 -437 -316
-555 -66 -87 -157 -176 -194 -190 -47 -17 -96 23 -96 79 0 63 212 556 360 839
28 53 31 66 22 86 -31 68 -228 57 -299 -16 -68 -70 -344 -691 -393 -883 -34
-133 -23 -251 28 -308 61 -68 180 -75 294 -19 103 50 248 197 348 350 14 22
15 17 12 -64 -4 -104 13 -159 63 -203 63 -55 171 -55 282 -1 52 25 91 56 169
134 55 56 116 124 135 151 l34 50 3 -30 c12 -119 64 -195 164 -241 57 -26 73
-29 168 -28 122 1 202 19 305 71 100 50 189 115 276 203 l77 77 4 -68 c10
-131 79 -199 205 -199 76 0 112 12 193 66 79 52 156 130 248 251 l70 92 12
-61 c42 -215 203 -315 440 -274 217 38 454 215 664 496 125 168 151 238 94
256 -25 7 -20 12 -145 -147 -86 -110 -211 -239 -278 -288 -64 -46 -155 -88
-220 -102 -192 -39 -271 88 -204 331 56 207 237 484 373 572 69 45 102 48 117
14 24 -51 -7 -113 -122 -248 -40 -47 -43 -92 -8 -120 31 -26 88 -17 151 23 64
41 105 90 141 167 25 54 30 76 29 139 0 64 -5 82 -29 121 -45 73 -150 112
-258 96z m-1919 -804 c26 -228 5 -363 -69 -447 -78 -89 -205 -84 -248 10 -42
93 -7 216 92 325 53 58 61 92 32 124 -16 18 -15 21 6 66 13 26 51 94 85 151
l61 103 12 -93 c7 -52 19 -159 29 -239z"/>
<path d="M7315 4385 c-80 -28 -145 -124 -145 -213 0 -42 23 -97 46 -110 16 -9
15 -17 -25 -103 -154 -341 -404 -717 -514 -775 -23 -12 -32 -13 -55 -2 -70 34
-35 138 239 706 39 79 68 150 65 158 -10 25 -56 46 -113 51 -81 6 -137 -23
-180 -95 l-32 -54 -15 30 c-72 139 -263 146 -461 17 -142 -92 -328 -324 -429
-535 -109 -228 -389 -463 -568 -477 -58 -5 -66 -3 -95 21 -41 35 -55 72 -51
142 l3 59 60 13 c268 60 461 193 554 383 50 103 60 171 37 252 -21 72 -61 112
-134 133 -259 75 -659 -267 -790 -676 -33 -102 -45 -185 -39 -260 10 -120 59
-200 150 -244 189 -92 453 13 705 279 l90 95 4 -83 c9 -165 94 -247 241 -234
126 11 274 122 377 281 24 36 43 66 44 66 1 0 2 -30 3 -67 1 -51 9 -80 30
-121 36 -70 75 -92 159 -92 95 0 166 40 290 164 149 150 268 328 464 696 123
231 115 220 150 220 65 0 109 -44 96 -97 -4 -15 -38 -84 -76 -153 -178 -322
-225 -496 -169 -620 41 -91 91 -123 194 -124 63 -1 80 3 150 38 106 52 252
196 351 346 111 167 132 227 87 244 -26 10 -51 -13 -122 -112 -161 -225 -288
-324 -344 -267 -46 46 -19 143 121 441 50 105 95 208 101 230 27 96 3 161 -73
199 -43 22 -63 25 -151 25 -56 0 -104 2 -107 5 -3 3 5 31 18 63 13 31 24 74
24 95 0 32 -5 40 -32 57 -38 23 -77 25 -133 5z m-870 -461 c23 -9 45 -57 45
-99 0 -70 -114 -313 -220 -471 -65 -95 -173 -210 -222 -235 -123 -63 -158 43
-82 245 129 342 356 607 479 560z m-985 -79 c19 -23 7 -106 -25 -167 -53 -102
-167 -222 -277 -291 -46 -29 -128 -58 -128 -46 0 24 91 202 145 285 61 94 142
186 190 215 36 23 78 24 95 4z"/>
</g>
</svg>
